<svg xmlns="http://www.w3.org/2000/svg" viewBox="0 0 64 64" role="img" aria-label="Jan's portfolio icon">
  <rect width="64" height="64" rx="18" fill="#ffd5dd" />
  <path
    d="M18 25 24 15l7 9M46 25l-7-10-7 9"
    fill="#fff9fa"
    stroke="#22181c"
    stroke-linejoin="round"
    stroke-width="2.4"
  />
  <path
    d="M17 29c0-10.6 6.8-17 15-17s15 6.4 15 17v9.5C47 47.2 40.3 53 32 53s-15-5.8-15-14.5Z"
    fill="#fff9fa"
    stroke="#22181c"
    stroke-linejoin="round"
    stroke-width="2.4"
  />
  <ellipse cx="26.5" cy="31.5" rx="1.8" ry="2.2" fill="#22181c" />
  <ellipse cx="37.5" cy="31.5" rx="1.8" ry="2.2" fill="#22181c" />
  <ellipse cx="32" cy="36.4" rx="2.2" ry="1.5" fill="#f2c24f" />
  <path
    d="M24 36.5h-7M23.5 39.8h-6.2M40 36.5h7M40.5 39.8h6.2"
    fill="none"
    stroke="#22181c"
    stroke-linecap="round"
    stroke-width="2"
  />
  <g transform="translate(38 14)">
    <path
      d="M0 6.5C0 3.2 2.7.8 6.1.8c1.8 0 3.1.7 4.1 1.9C11.1 1.5 12.4.8 14.2.8c3.4 0 6.1 2.4 6.1 5.7 0 3.3-2.7 5.7-6.1 5.7-1.8 0-3.2-.7-4-1.8-.9 1.1-2.3 1.8-4.1 1.8C2.7 12.2 0 9.8 0 6.5Z"
      fill="#ff9fb6"
      stroke="#22181c"
      stroke-width="1.8"
    />
    <rect x="8.2" y="4.1" width="3.7" height="4.5" rx="1.2" fill="#d94762" stroke="#22181c" stroke-width="1.4" />
  </g>
</svg>
